<svg xmlns="http://www.w3.org/2000/svg" width="40" height="48" viewBox="0 0 40 48">
  <defs>
    <linearGradient id="gold" x1="0" y1="0" x2="1" y2="1"><stop stop-color="#fff5ce"/><stop offset=".38" stop-color="#dcb768"/><stop offset=".65" stop-color="#79502d"/><stop offset="1" stop-color="#f5db93"/></linearGradient>
    <linearGradient id="gem" x1="0" y1="0" x2="1" y2="1"><stop stop-color="#e3d1ff"/><stop offset=".5" stop-color="#895ac9"/><stop offset="1" stop-color="#35204e"/></linearGradient>
  </defs>
  <path d="M3 2 29 28 19 29 25 42 20 45 14 31 7 39Z" fill="#100d19" stroke="#100d19" stroke-width="4" stroke-linejoin="round"/>
  <path d="M3 2 29 28 19 29 25 42 20 45 14 31 7 39Z" fill="url(#gold)" stroke="#f8e4aa" stroke-width="1" stroke-linejoin="round"/>
  <path d="M6 9 22 25 15 24 10 31Z" fill="#251a32" stroke="#9b7944" stroke-width=".7"/>
  <path d="m10 14 8 10-5 3-4-6Z" fill="url(#gem)" stroke="#d7b8f0" stroke-width=".65"/>
  <path d="m10 14 3 9 5 1-5 3Z" fill="#bd99e9" opacity=".7"/>
  <path d="m17 29 6 13M6 7l1 15M21 25l5 2" fill="none" stroke="#fff5d2" stroke-width=".7"/>
  <path d="m17.5 34 4-2m-2 7 4-2" stroke="#5a3927" stroke-width="1.1"/>
</svg>
